<?xml version="1.0" standalone="no"?>
<!DOCTYPE svg PUBLIC "-//W3C//DTD SVG 20010904//EN"
 "http://www.w3.org/TR/2001/REC-SVG-20010904/DTD/svg10.dtd">
<svg version="1.0" xmlns="http://www.w3.org/2000/svg"
 width="1000.000000pt" height="1000.000000pt" viewBox="0 0 1000.000000 1000.000000"
 preserveAspectRatio="xMidYMid meet">
<metadata>
Created by potrace 1.11, written by Peter Selinger 2001-2013
</metadata>
<g transform="translate(0.000000,1000.000000) scale(0.100000,-0.100000)"
fill="#000000" stroke="none">
<path d="M4425 9865 c-896 -82 -1732 -406 -2445 -949 -165 -125 -283 -228
-448 -390 -448 -439 -791 -941 -1038 -1517 -194 -453 -314 -939 -359 -1447
-17 -193 -20 -581 -5 -768 70 -894 394 -1756 928 -2469 260 -347 606 -693 957
-956 468 -352 1005 -614 1597 -778 203 -56 472 -106 743 -138 212 -25 767 -25
980 0 612 72 1105 217 1624 477 472 236 850 509 1226 885 378 378 653 758 890
1233 483 966 616 2058 383 3142 -11 52 -44 178 -73 280 -278 962 -851 1805
-1655 2430 -482 375 -1071 665 -1681 829 -226 60 -589 121 -843 141 -173 13
-608 11 -781 -5z m1229 -3340 c33 -31 33 -63 0 -146 -14 -35 -46 -118 -69
-184 -41 -114 -71 -193 -220 -590 -35 -93 -100 -269 -145 -390 -78 -211 -123
-332 -281 -750 -39 -104 -84 -226 -99 -270 -15 -44 -55 -150 -87 -235 -33 -85
-72 -189 -87 -232 -43 -121 -19 -113 -365 -110 l-296 2 -22 26 c-13 14 -23 34
-23 45 0 12 24 84 54 162 30 78 112 295 181 482 70 187 176 473 237 635 200
535 266 713 338 910 192 526 232 625 256 648 25 22 28 22 313 22 l288 0 27
-25z m-1834 -345 c19 -19 20 -33 20 -283 0 -195 -3 -267 -12 -279 -12 -15 -67
-41 -423 -206 -483 -223 -598 -276 -662 -305 -76 -34 -84 -41 -55 -50 9 -3
112 -44 227 -92 214 -88 375 -154 703 -288 101 -41 192 -83 203 -93 18 -16 19
-33 19 -273 0 -365 17 -354 -318 -208 -235 103 -930 410 -1257 554 -93 42
-226 100 -295 131 -69 30 -132 61 -141 68 -21 19 -36 319 -17 360 10 22 173
107 968 504 652 327 965 479 988 479 19 1 40 -7 52 -19z m3030 -460 c636 -318
963 -487 970 -500 7 -14 10 -76 8 -180 -4 -188 2 -178 -133 -238 -49 -22 -168
-74 -262 -116 -95 -42 -248 -109 -340 -150 -93 -41 -339 -149 -548 -241 -209
-92 -446 -197 -527 -232 -139 -62 -149 -65 -178 -53 -18 7 -36 24 -41 37 -5
13 -9 134 -9 268 0 217 2 245 18 264 9 12 103 56 212 100 107 44 290 118 405
166 116 47 283 116 373 152 89 37 162 69 162 72 0 3 -82 44 -183 90 -835 384
-945 437 -969 458 -16 15 -18 40 -18 279 l0 263 26 20 c15 12 37 21 50 21 13
0 456 -216 984 -480z"/>
</g>
</svg>
